<svg width="50" height="26" viewBox="0 0 97 26" fill="none" xmlns="http://www.w3.org/2000/svg">
<path d="M37.2548 21.0233C36.9425 21.0233 36.6301 21.0233 36.2136 21.0233C35.7971 21.0233 35.4848 21.0233 35.0683 20.9192C34.6518 20.9192 34.2353 20.8151 33.8188 20.711C33.4023 20.6068 33.09 20.5027 32.6735 20.3986C31.7364 20.0862 31.2158 19.4615 31.2158 18.5244L31.2158 6.55042C31.2158 6.23806 31.3199 5.92569 31.5281 5.71745C31.7364 5.50921 31.9446 5.40509 32.3611 5.19684C33.09 4.9886 33.9229 4.78036 34.7559 4.67623C35.5889 4.67623 36.3177 4.57211 36.9425 4.57211C38.296 4.57211 39.5455 4.78036 40.5867 5.09272C41.6279 5.40509 42.565 5.92569 43.398 6.55042C44.231 7.27927 44.7516 8.11224 45.1681 9.15346C45.5845 10.1947 45.7928 11.4441 45.7928 12.7977C45.7928 14.1513 45.5845 15.4008 45.1681 16.442C44.7516 17.4832 44.1268 18.3162 43.398 19.045C42.6691 19.7739 41.732 20.2945 40.6908 20.6068C39.7537 20.9192 38.5043 21.0233 37.2548 21.0233ZM35.7971 17.2749C36.0054 17.2749 36.2136 17.3791 36.526 17.3791C36.8383 17.3791 37.0466 17.3791 37.2548 17.3791C37.8796 17.3791 38.4002 17.2749 38.8166 17.1708C39.3373 16.9626 39.7537 16.7543 40.0661 16.3378C40.3785 16.0255 40.6908 15.5049 40.8991 14.9843C41.1073 14.3595 41.2114 13.7348 41.2114 12.9018C41.2114 11.34 40.8991 10.1947 40.1702 9.3617C39.4414 8.52873 38.5043 8.21637 37.2548 8.21637C37.0466 8.21637 36.7342 8.21637 36.526 8.21637C36.3177 8.21637 36.0054 8.21637 35.7971 8.32049V17.2749Z" fill="#0E0244"/>
<path d="M48.0836 4.67623C48.0836 4.0515 48.2918 3.42677 48.7083 3.01029C49.1248 2.5938 49.7495 2.38556 50.4784 2.38556C51.2072 2.38556 51.7278 2.5938 52.2484 3.01029C52.6649 3.42677 52.8731 4.0515 52.8731 4.67623C52.8731 5.30096 52.6649 5.92569 52.2484 6.34218C51.8319 6.75866 51.2072 6.96691 50.4784 6.96691C49.7495 6.96691 49.2289 6.75866 48.7083 6.34218C48.2918 5.82157 48.0836 5.30096 48.0836 4.67623ZM51.8319 20.7109C51.5196 20.7109 51.3113 20.8151 51.1031 20.8151C50.5825 20.8151 50.0619 20.8151 49.7495 20.7109C49.4371 20.7109 49.2289 20.6068 49.0206 20.3986C48.8124 20.1903 48.6042 19.9821 48.5 19.7739C48.3959 19.4615 48.2918 19.1491 48.2918 18.7326V8.32049C48.5 8.32049 48.7083 8.21636 49.1248 8.21636C49.333 8.21636 49.6454 8.11224 49.8536 8.11224C50.3742 8.11224 50.8948 8.11224 51.2072 8.21636C51.5196 8.21636 51.7278 8.32049 51.9361 8.52873C52.1443 8.63285 52.3525 8.94522 52.4567 9.15346C52.5608 9.46582 52.6649 9.77819 52.6649 10.1947V19.878C52.6649 20.2945 52.2484 20.7109 51.8319 20.7109Z" fill="#0E0244"/>
<path d="M61.5152 7.69583C62.4523 7.69583 63.3894 7.79995 64.2223 8.11232C65.0553 8.32056 65.68 8.63293 66.2007 9.04941C66.513 9.25765 66.8254 9.57002 67.0336 9.88238C67.2419 10.1947 67.346 10.5071 67.346 11.0277V20.0863C67.346 21.0234 67.1377 21.7522 66.8254 22.4811C66.513 23.1058 65.9924 23.7305 65.4718 24.147C64.8471 24.5635 64.2223 24.8759 63.3894 25.0841C62.5564 25.2924 61.7234 25.3965 60.7863 25.3965C59.2245 25.3965 57.9751 25.1882 57.1421 24.7718C56.205 24.3553 55.7885 23.6264 55.7885 22.6893C55.7885 22.2728 55.8926 21.9605 55.9967 21.6481C56.205 21.3357 56.3091 21.1275 56.5174 20.9193C57.038 21.2316 57.5586 21.4399 58.1833 21.6481C58.808 21.8564 59.4328 21.9605 60.1616 21.9605C61.0987 21.9605 61.8276 21.8564 62.3482 21.544C62.8688 21.2316 63.1811 20.711 63.1811 20.0863V19.6698C62.4523 19.9822 61.6193 20.0863 60.5781 20.0863C59.8492 20.0863 59.1204 19.9822 58.3915 19.7739C57.6627 19.5657 57.038 19.1492 56.5174 18.7327C55.9967 18.2121 55.5803 17.5874 55.2679 16.8585C54.9555 16.1297 54.7473 15.1926 54.7473 14.1514C54.7473 13.1102 54.9555 12.1731 55.2679 11.4442C55.5803 10.7154 56.1009 9.9865 56.6215 9.57002C57.2462 9.04941 57.8709 8.73705 58.7039 8.42468C59.641 7.90407 60.5781 7.69583 61.5152 7.69583ZM63.077 11.4442C62.9729 11.3401 62.7646 11.3401 62.5564 11.236C62.3482 11.1318 62.0358 11.1318 61.7234 11.1318C60.8905 11.1318 60.2657 11.3401 59.8492 11.8607C59.4328 12.3813 59.2245 13.006 59.2245 13.839C59.2245 14.8802 59.4328 15.5049 59.8492 16.0256C60.2657 16.442 60.7863 16.6503 61.4111 16.6503C62.1399 16.6503 62.6605 16.442 63.077 16.1297V11.4442Z" fill="#0E0244"/>
<path d="M69.9492 4.67623C69.9492 4.0515 70.1574 3.42677 70.5739 3.01029C70.9904 2.5938 71.6151 2.38556 72.344 2.38556C73.0728 2.38556 73.5934 2.5938 74.114 3.01029C74.5305 3.42677 74.7388 4.0515 74.7388 4.67623C74.7388 5.30096 74.5305 5.92569 74.114 6.34218C73.6976 6.75866 73.0728 6.96691 72.344 6.96691C71.6151 6.96691 71.0945 6.75866 70.5739 6.34218C70.1574 5.82157 69.9492 5.30096 69.9492 4.67623ZM73.6976 20.7109C73.3852 20.7109 73.177 20.8151 72.9687 20.8151C72.4481 20.8151 71.9275 20.8151 71.6151 20.7109C71.3028 20.7109 71.0945 20.6068 70.8863 20.3986C70.678 20.2945 70.4698 19.9821 70.3657 19.7739C70.2616 19.4615 70.1574 19.1491 70.1574 18.7326V8.32049C70.3657 8.32049 70.5739 8.21636 70.9904 8.21636C71.1986 8.21636 71.511 8.11224 71.7193 8.11224C72.2399 8.11224 72.7605 8.11224 73.0728 8.21636C73.3852 8.21636 73.5934 8.32049 73.8017 8.52873C74.0099 8.63285 74.2182 8.94522 74.3223 9.15346C74.4264 9.46582 74.5305 9.77819 74.5305 10.1947V19.878C74.5305 20.2945 74.1141 20.7109 73.6976 20.7109Z" fill="#0E0244"/>
<path d="M77.3417 8.11209C77.3417 7.27911 77.4459 6.44614 77.7582 5.82141C78.0706 5.19668 78.4871 4.67608 79.0077 4.25959C79.5283 3.8431 80.153 3.53074 80.7777 3.3225C81.5066 3.11425 82.2354 3.01013 82.9643 3.01013C84.2138 3.01013 85.1509 3.21837 85.7756 3.53074C86.4003 3.8431 86.7127 4.46783 86.7127 5.19668C86.7127 5.50905 86.6085 5.82141 86.5044 6.13378C86.4003 6.44614 86.1921 6.65439 85.9838 6.75851C85.6715 6.65439 85.3591 6.55026 84.9426 6.55026C84.7344 6.65439 84.3179 6.65439 83.7973 6.65439C83.0684 6.65439 82.4437 6.75851 82.0272 7.07087C81.6107 7.27911 81.4025 7.79972 81.4025 8.32033V9.1533L85.6715 9.1533C85.7756 9.36154 85.8797 9.56979 85.9838 9.88215C86.0879 10.1945 86.0879 10.5069 86.0879 10.8192C86.0879 11.444 85.9838 11.8605 85.6715 12.0687C85.3591 12.3811 85.0467 12.4852 84.6302 12.4852H81.7148V19.8778C81.7148 20.2943 81.4025 20.7108 80.8819 20.8149C80.4654 20.8149 80.153 20.919 79.7365 20.919C79.32 20.919 79.0077 20.919 78.6953 20.8149C78.3829 20.8149 78.1747 20.7108 77.9665 20.5025C77.7582 20.3984 77.55 20.0861 77.4459 19.8778C77.3417 19.5655 77.2376 19.2531 77.2376 18.8366V8.11209H77.3417Z" fill="#0E0244"/>
<path d="M92.6475 16.3378C92.6475 16.7542 92.7517 17.0666 93.064 17.2748C93.3764 17.4831 93.7929 17.5872 94.3135 17.5872C94.5217 17.5872 94.8341 17.5872 95.1465 17.4831H95.2506C95.6671 17.379 96.0836 17.5872 96.1877 18.0037C96.2918 18.2119 96.3959 18.5243 96.3959 18.8367C96.3959 19.4614 96.1877 19.982 95.6671 20.3985C95.1465 20.815 94.3135 21.0232 93.064 21.0232C91.5022 21.0232 90.3569 20.7109 89.5239 19.982C88.6909 19.2532 88.2744 18.2119 88.2744 16.6501V5.61324C88.4827 5.61324 88.6909 5.50912 89.1074 5.40499C89.4198 5.30087 89.8363 5.30087 90.2527 5.30087C90.9816 5.30087 91.6063 5.40499 92.0228 5.71736C92.4393 6.02972 92.6475 6.55033 92.6475 7.3833V9.04925L95.3547 9.04925C95.7712 9.04925 96.1877 9.36161 96.3959 9.7781C96.5 10.0905 96.5 10.4028 96.5 10.7152C96.5 11.3399 96.3959 11.7564 96.0836 11.9647C95.7712 12.277 95.4588 12.3811 95.0423 12.3811L92.6475 12.3811V16.3378Z" fill="#0E0244"/>
<path d="M4.24844 3.94737C4.24844 3.53088 4.24844 3.01027 4.35257 2.59379C4.56081 1.55257 5.39378 0.823722 6.33087 0.615479L15.1812 0.615479C19.3461 1.03196 22.5738 4.5721 22.5738 8.84108V16.2337C22.5738 17.4832 21.7409 18.5244 20.4914 18.7326C20.0749 18.7326 19.5543 18.8367 19.1378 18.8367C10.9122 18.8367 4.24844 12.173 4.24844 3.94737Z" fill="url(#paint0_linear_1_8243)"/>
<path d="M26.0098 7.6957L26.0098 20.7109C26.0098 22.2727 24.7603 23.6263 23.0944 23.9387C22.8862 24.0428 22.5738 24.0428 22.3656 24.0428H11.5369C5.39374 24.0428 0.500031 19.4614 0.500031 13.943L0.500031 3.94733C0.500031 3.73909 0.500031 3.42672 0.604152 3.21848C0.708274 2.69787 0.916516 2.28138 1.333 1.8649C1.333 2.07314 1.333 2.28138 1.333 2.48963C1.333 13.4224 9.97509 22.1686 20.5955 22.1686C21.2202 22.1686 21.7408 22.1686 22.3656 22.0645C23.9274 21.7521 25.0727 20.2944 25.0727 18.7326L25.0727 4.05145C25.6974 5.19679 26.0098 6.34212 26.0098 7.6957Z" fill="url(#paint1_linear_1_8243)"/>
<path d="M22.5738 8.9452V16.3378C22.5738 17.5873 21.7409 18.6285 20.4914 18.8367C20.0749 18.8367 19.5543 18.9409 19.1378 18.9409C10.9122 18.9409 4.24844 12.2771 4.24844 4.05149C4.24844 3.635 4.24844 3.1144 4.35257 2.69791C4.56081 1.65669 5.39378 0.927844 6.33087 0.7196C6.53912 0.7196 6.64324 0.615479 6.85148 0.615479L14.2441 0.615479C14.5565 0.615479 14.8688 0.615479 15.1812 0.7196C19.3461 1.13609 22.5738 4.67622 22.5738 8.9452Z" fill="white"/>
<path d="M22.5738 8.9452V16.3378C22.5738 17.5873 21.7409 18.6285 20.4914 18.8367C20.0749 18.8367 19.5543 18.9409 19.1378 18.9409C10.9122 18.9409 4.24844 12.2771 4.24844 4.05149C4.24844 3.635 4.24844 3.1144 4.35257 2.69791C4.56081 1.65669 5.39378 0.927844 6.33087 0.7196C6.53912 0.7196 6.64324 0.615479 6.85148 0.615479L14.2441 0.615479C14.5565 0.615479 14.8688 0.615479 15.1812 0.7196C19.3461 1.13609 22.5738 4.67622 22.5738 8.9452Z" fill="url(#paint2_linear_1_8243)"/>
<defs>
<linearGradient id="paint0_linear_1_8243" x1="4.27864" y1="9.75839" x2="22.548" y2="9.75839" gradientUnits="userSpaceOnUse">
<stop offset="0.0137063" stop-color="#5AC8FA"/>
<stop offset="0.1956" stop-color="#44B4FB"/>
<stop offset="0.5419" stop-color="#1F94FD"/>
<stop offset="0.8224" stop-color="#087FFF"/>
<stop offset="1" stop-color="#0078FF"/>
</linearGradient>
<linearGradient id="paint1_linear_1_8243" x1="0.495449" y1="13.0369" x2="26.0607" y2="13.0369" gradientUnits="userSpaceOnUse">
<stop offset="0.0137063" stop-color="#5AC8FA"/>
<stop offset="0.1956" stop-color="#44B4FB"/>
<stop offset="0.5419" stop-color="#1F94FD"/>
<stop offset="0.8224" stop-color="#087FFF"/>
<stop offset="1" stop-color="#0078FF"/>
</linearGradient>
<linearGradient id="paint2_linear_1_8243" x1="4.27864" y1="9.73184" x2="22.548" y2="9.73184" gradientUnits="userSpaceOnUse">
<stop stop-color="#0078FF"/>
<stop offset="0.327" stop-color="#325EFF"/>
<stop offset="0.6177" stop-color="#574AFF"/>
<stop offset="0.8518" stop-color="#6E3EFF"/>
<stop offset="1" stop-color="#763AFF"/>
</linearGradient>
</defs>
</svg>
